<?xml version="1.0" encoding="UTF-8" standalone="no"?>
<!-- Created with Inkscape (http://www.inkscape.org/) -->

<svg
   width="211.94235mm"
   height="73.282722mm"
   viewBox="0 0 52.069999 18.0041"
   version="1.1"
   id="svg5"
   inkscape:version="1.1.1 (3bf5ae0d25, 2021-09-20)"
   sodipodi:docname="Cricket Wireless (2014).svg"
   xmlns:inkscape="http://www.inkscape.org/namespaces/inkscape"
   xmlns:sodipodi="http://sodipodi.sourceforge.net/DTD/sodipodi-0.dtd"
   xmlns="http://www.w3.org/2000/svg"
   xmlns:svg="http://www.w3.org/2000/svg">
  <sodipodi:namedview
     id="namedview7"
     pagecolor="#ffffff"
     bordercolor="#666666"
     borderopacity="1.0"
     inkscape:pageshadow="2"
     inkscape:pageopacity="0.0"
     inkscape:pagecheckerboard="0"
     inkscape:document-units="mm"
     showgrid="false"
     fit-margin-top="0"
     fit-margin-left="0"
     fit-margin-right="0"
     fit-margin-bottom="0"
     scale-x="0.24568"
     inkscape:zoom="1.2833588"
     inkscape:cx="397.00511"
     inkscape:cy="137.52974"
     inkscape:window-width="1366"
     inkscape:window-height="697"
     inkscape:window-x="-8"
     inkscape:window-y="-8"
     inkscape:window-maximized="1"
     inkscape:current-layer="layer1" />
  <defs
     id="defs2"><clipPath
   clipPathUnits="userSpaceOnUse"
   id="clipPath37">
  <path
     d="M 0,0 H 342 V 342 H 0 Z"
     id="path35" />
</clipPath>
<clipPath
   clipPathUnits="userSpaceOnUse"
   id="clipPath51">
  <path
     d="m 32.4,20.16 h 38.074 v 25.2 H 32.4 Z"
     id="path49" />
</clipPath>
<clipPath
   clipPathUnits="userSpaceOnUse"
   id="clipPath71">
  <path
     d="m 219,136.006 h 91.075 V 307.64 H 219 Z"
     id="path69" />
</clipPath>
<clipPath
   clipPathUnits="userSpaceOnUse"
   id="clipPath81">
  <path
     d="m 262.534,305 c -1.569,-10e-4 -3.193,-0.018 -4.037,-0.076 v 0 c -0.101,-0.007 -3.488,-0.057 -3.587,-0.059 v 0 c -3.354,-0.074 -7.284,-0.245 -8.73,-0.418 v 0 c -0.195,-0.024 -2.978,-0.036 -10.165,-1.017 v 0 c -7.187,-0.981 -11.635,-3.78 -13.991,-6.817 v 0 c -2.357,-3.037 -3.301,-5.823 -3.468,-10.643 v 0 c -0.022,-0.615 -0.047,-1.689 -0.06,-2.571 v 0 c -0.037,-2.475 -0.005,-5.727 0,-8.73 v 0 c 0.007,-4.306 0,-8.131 0,-8.131 v 0 c 0,0 -0.275,0.119 -0.299,-0.658 v 0 c -0.006,-0.186 -0.008,-0.855 -0.009,-1.726 v 0 -1.185 c 0.002,-2.172 0.009,-4.743 0.009,-4.743 v 0 -11.599 -8.491 c 0,0 0.012,-0.717 0.299,-0.777 v 0 c 0.02,-0.005 0,-1.186 0,-1.315 v 0 c 0.002,-1.745 0,-11.779 0,-11.779 v 0 -14.471 -41.675 -14.53 c 0,0 -0.072,-5.525 2.033,-9.268 v 0 c 2.291,-4.073 5.285,-6.074 9.746,-7.772 v 0 c 4.46,-1.698 13.728,-2.309 19.672,-2.631 v 0 c 5.944,-0.323 7.772,-0.228 15.367,-0.3 v 0 c 7.593,-0.071 14.625,0.24 23.319,1.077 v 0 c 8.694,0.837 14.984,2.775 18.894,8.73 v 0 c 1.608,2.448 1.959,4.629 2.392,7.294 v 0 c 0.126,0.772 0.124,2.109 0.119,3.409 v 0 c -0.002,0.988 0.003,1.939 0,2.691 v 0 c -0.009,2.466 0.004,3.808 0,6.517 v 0 c -0.005,4.034 -0.004,8.293 -0.002,12.125 v 0 c 10e-4,3.03 0.003,5.792 0.004,7.967 v 0 1.572 c 0,0.691 -0.001,1.288 -0.002,1.774 v 0 25.352 9.089 39.643 23.857 c 0,0 0.002,0.066 0.002,0.187 v 0 0.076 c -0.003,1.266 -0.147,6.815 -2.393,10.021 v 0 c -0.842,1.202 -1.183,1.86 -2.452,3.049 v 0 c -2.291,2.148 -4.445,3.16 -6.457,3.887 v 0 c -2.814,1.016 -4.966,1.326 -6.697,1.555 v 0 c -0.068,0.008 -0.037,0.22 -0.12,0.238 v 0 c -0.526,0.116 -1.559,0.272 -2.691,0.359 v 0 c -2.346,0.182 -3.934,0.529 -9.387,0.778 v 0 c -0.276,0.013 -0.717,0.083 -0.717,-0.18 v 0 c -10e-4,-0.038 -1.243,0.025 -2.477,0.088 v 0 c -1.203,0.062 -2.397,0.124 -2.426,0.092 v 0 c -0.012,-0.013 -2.059,0.086 -4.066,0.12 v 0 c -1.251,0.02 -2.486,0.013 -3.202,0.006 v 0 c -0.373,-0.004 -0.605,-0.007 -0.625,-0.006 v 0 c -0.516,10e-4 -1.879,0.014 -3.363,0.015 v 0 z"
     id="path79" />
</clipPath>
<clipPath
   clipPathUnits="userSpaceOnUse"
   id="clipPath91">
  <path
     d="M 32.76,221.817 H 164.831 V 240.84 H 32.76 Z"
     id="path89" />
</clipPath>
<clipPath
   clipPathUnits="userSpaceOnUse"
   id="clipPath37-7">
  <path
     d="M 0,0 H 342 V 342 H 0 Z"
     id="path35-0" />
</clipPath>

	
	
</defs>
  <g
     inkscape:label="Layer 1"
     inkscape:groupmode="layer"
     id="layer1"
     transform="translate(-88.426052,-135.73409)">
    <g
       id="g65"
       transform="matrix(0.35277777,0,0,-0.35277777,40.331703,224.25163)">
      <g
         id="g67"
         clip-path="url(#clipPath71)">
        <g
           id="g73"
           transform="matrix(93.092658,0,0,172.67843,217.98581,136.0066)" />
      </g>
    </g>
    <g
       id="g75"
       transform="matrix(0.35277777,0,0,-0.35277777,40.331703,224.25163)">
      <g
         id="g77"
         clip-path="url(#clipPath81)">
        <g
           id="g83"
           transform="matrix(93.874369,0,0,173.39851,217.18053,132.60233)" />
      </g>
    </g>
    <g
       id="g4479">
      <path
         style="fill:#231f20;fill-opacity:1;fill-rule:nonzero;stroke:none;stroke-width:0.352778"
         d="m 118.76141,135.7355 h -2.50296 v 7.97772 l 2.50296,-2.48814 z"
         id="path2124" />
      <path
         style="fill:#231f20;fill-opacity:1;fill-rule:nonzero;stroke:none;stroke-width:0.352778"
         d="m 119.02141,144.50027 2.35444,2.48108 h 3.53483 l -4.11092,-4.25591 z"
         id="path2122" />
      <path
         id="path2118"
         style="fill:#231f20;fill-opacity:1;fill-rule:nonzero;stroke:none;stroke-width:0.352778"
         d="m 139.00909,138.7835 h -0.2039 v -0.16757 h 0.59725 v 0.16757 h -0.20355 v 0.77647 h -0.1898 z m 0.49213,0.77647 v -0.94404 h 0.25647 l 0.242,0.67734 0.23883,-0.67734 h 0.25753 v 0.94404 h -0.17639 l 0.005,-0.75636 -0.26387,0.75636 h -0.12489 l -0.26493,-0.75636 0.005,0.75636 z" />
      <path
         id="path2114"
         style="fill:#231f20;fill-opacity:1;fill-rule:nonzero;stroke:none;stroke-width:0.352778"
         d="m 126.29251,143.61479 c 0.0931,0.92428 0.95497,1.57586 1.93464,1.57586 0.73906,0 1.16487,-0.31609 1.44603,-0.70344 h 2.58233 c -0.73942,1.58997 -2.15547,2.76543 -4.02836,2.76543 -2.39748,0 -4.43336,-1.94486 -4.43336,-4.43371 0,-2.33715 1.83973,-4.49333 4.38855,-4.49333 1.28164,0 2.38266,0.49741 3.16654,1.32644 0.85725,0.91899 1.22978,1.99919 1.22978,3.13549 0,0.2734 -0.0124,0.53834 -0.049,0.82726 z m 3.77966,-1.80304 c -0.0621,-0.43039 -0.57785,-1.42381 -1.87501,-1.42381 -1.29681,0 -1.81786,0.99765 -1.87643,1.42381 z" />
      <path
         style="fill:#231f20;fill-opacity:1;fill-rule:nonzero;stroke:none;stroke-width:0.352778"
         d="m 115.56454,143.7993 c -0.45261,1.90076 -2.12654,3.45334 -4.38856,3.45334 -2.53365,0 -4.47851,-1.99073 -4.47851,-4.47887 0,-2.4578 1.91488,-4.44817 4.41819,-4.44817 2.21686,0 4.01108,1.46226 4.43371,3.51366 h -2.5333 c -0.27164,-0.57361 -0.7694,-1.17651 -1.80975,-1.17651 -0.58843,-0.03 -1.08585,0.19579 -1.4478,0.58808 -0.34678,0.39229 -0.54292,0.93451 -0.54292,1.53776 0,1.22202 0.79939,2.1269 1.99072,2.1269 1.04035,0 1.53811,-0.60325 1.80975,-1.11619 z"
         id="path2112" />
      <path
         style="fill:#231f20;fill-opacity:1;fill-rule:nonzero;stroke:none;stroke-width:0.352778"
         d="m 135.88701,140.71355 h 2.3936 v -2.09762 h -2.39431 v -2.88078 h -2.50154 l -0.001,7.51875 c 0,2.66665 1.36771,3.72745 4.27425,3.72745 h 0.20426 v -2.24402 h -0.0907 c -1.28129,0 -1.8849,-0.46743 -1.8849,-1.64359 z"
         id="path2110" />
      <path
         style="fill:#231f20;fill-opacity:1;fill-rule:nonzero;stroke:none;stroke-width:0.352778"
         d="m 98.065704,138.61593 h 2.352326 v 1.22062 c 0.2413,-0.45262 0.67874,-1.22132 2.12584,-1.22132 v 2.43805 h -0.09 c -1.282,0 -1.88525,0.46743 -1.88525,1.64394 v 4.28413 h -2.502956 z"
         id="path2108" />
      <path
         style="fill:#231f20;fill-opacity:1;fill-rule:nonzero;stroke:none;stroke-width:0.352778"
         d="m 97.292768,143.7993 c -0.452261,1.90076 -2.126544,3.45334 -4.388555,3.45334 -2.533297,0 -4.478161,-1.99073 -4.478161,-4.47887 0,-2.4578 1.914877,-4.44817 4.418189,-4.44817 2.216855,0 4.011436,1.46226 4.433358,3.51366 h -2.532945 c -0.271991,-0.57361 -0.769408,-1.17651 -1.80975,-1.17651 -0.588786,-0.03 -1.086202,0.19579 -1.448152,0.58808 -0.346075,0.39229 -0.542573,0.93451 -0.542573,1.53776 0,1.22202 0.799042,2.1269 1.990725,2.1269 1.040342,0 1.537759,-0.60325 1.80975,-1.11619 z"
         id="path2106" />
      <path
         id="path39"
         style="fill:#231f20;fill-opacity:1;fill-rule:nonzero;stroke:none;stroke-width:0.352778"
         d="m 103.48613,135.73409 h 2.5012 v 2.11455 h -2.5012 z m 0,2.88184 h 2.5012 v 8.36542 h -2.5012 z" />
      <path
         d="m 121.38657,138.61481 -5.12798,5.09834 v 3.54189 l 8.66246,-8.63952 z"
         style="fill:#61c336;fill-opacity:1;fill-rule:nonzero;stroke:none;stroke-width:0.352778"
         id="path43" />
    </g>
    <g
       id="g4489">
      <path
         style="fill:#231f20;fill-opacity:1;stroke-width:0.049868"
         d="m 88.739825,149.85272 h 0.967883 l 0.637664,2.55233 0.671825,-2.42699 h 0.705986 l 0.683211,2.42699 0.626278,-2.55233 h 0.967883 l -1.127299,3.76013 h -0.808467 l -0.694599,-2.37002 -0.671825,2.38141 h -0.831241 z"
         id="path3727" />
      <path
         style="fill:#231f20;fill-opacity:1;stroke-width:0.049868"
         d="m 114.23501,150.86682 c -0.0114,-0.19371 -0.11387,-0.39881 -0.45548,-0.39881 -0.29606,0 -0.44408,0.19371 -0.44408,0.37602 0.0114,0.23928 0.28467,0.36462 0.63766,0.47856 0.60351,0.15952 1.25256,0.34183 1.26394,1.15083 0.0114,0.77481 -0.63766,1.26477 -1.42335,1.26477 -0.58073,0 -1.36643,-0.29626 -1.43475,-1.2078 h 0.89956 c 0.0342,0.3988 0.38716,0.48995 0.55796,0.48995 0.28467,0 0.52379,-0.1823 0.51241,-0.43298 0,-0.31904 -0.28467,-0.4102 -0.96789,-0.64948 -0.51241,-0.15952 -0.92233,-0.44437 -0.92233,-0.97991 0,-0.74063 0.62628,-1.1964 1.35503,-1.1964 0.50103,0 1.26394,0.22788 1.33227,1.12803 h -0.91095 z"
         id="path3725" />
      <path
         style="fill:#231f20;fill-opacity:1;stroke-width:0.049868"
         d="m 110.81895,150.86682 c -0.0114,-0.19371 -0.11387,-0.39881 -0.45547,-0.39881 -0.29606,0 -0.44409,0.19371 -0.44409,0.37602 0.0114,0.23928 0.28467,0.36462 0.63766,0.47856 0.60351,0.15952 1.25256,0.34183 1.26395,1.15083 0.0114,0.77481 -0.63767,1.26477 -1.42336,1.26477 -0.58073,0 -1.36643,-0.29626 -1.43475,-1.2078 h 0.89956 c 0.0342,0.3988 0.38716,0.48995 0.55796,0.48995 0.28467,0 0.5238,-0.1823 0.51241,-0.43298 0,-0.31904 -0.28467,-0.4102 -0.96789,-0.64948 -0.5124,-0.15952 -0.92233,-0.44437 -0.92233,-0.97991 0,-0.74063 0.62628,-1.1964 1.34365,-1.1964 0.51241,0 1.26394,0.22788 1.33226,1.12803 h -0.89956 z"
         id="path3723" />
      <path
         style="fill:#231f20;fill-opacity:1;stroke-width:0.049868"
         d="m 102.88231,148.54237 h 0.89956 v 5.08187 h -0.89956 z"
         id="path3721" />
      <path
         id="path3717"
         style="fill:#231f20;fill-opacity:1;stroke-width:0.049868"
         d="m 105.34187,152.04043 c 0.0456,0.6039 0.58073,0.93434 1.09314,0.93434 0.44409,0 0.72876,-0.19371 0.89956,-0.51275 h 0.92234 c -0.18219,0.42159 -0.44409,0.72924 -0.76292,0.94573 -0.31883,0.21649 -0.68321,0.33044 -1.07037,0.33044 -1.16146,0 -1.98131,-0.93434 -1.98131,-1.98262 0,-1.07106 0.83124,-2.0054 1.96993,-2.0054 0.55795,0 1.05898,0.21649 1.40058,0.58111 0.45548,0.47856 0.62628,1.05967 0.55796,1.72055 h -3.02891 z m 2.14073,-0.69505 c -0.0342,-0.35323 -0.40993,-0.85458 -1.07037,-0.85458 -0.66043,0 -1.02481,0.47856 -1.05897,0.85458 z" />
      <path
         id="path3713"
         style="fill:#231f20;fill-opacity:1;stroke-width:0.049868"
         d="m 99.192964,152.04043 c 0.04555,0.6039 0.58073,0.93434 1.093136,0.93434 0.4327,0 0.72876,-0.19371 0.89956,-0.51275 h 0.92234 c -0.18219,0.42159 -0.44409,0.72924 -0.76292,0.94573 -0.31883,0.21649 -0.68321,0.33044 -1.07036,0.33044 -1.161464,0 -1.981318,-0.93434 -1.981318,-1.98262 0,-1.07106 0.831241,-2.0054 1.969928,-2.0054 0.55796,0 1.05898,0.21649 1.40058,0.58111 0.45548,0.47856 0.62628,1.05967 0.55796,1.72055 h -3.028906 z m 2.152116,-0.69505 c -0.0342,-0.35323 -0.40993,-0.85458 -1.07036,-0.85458 -0.660442,0 -1.024822,0.47856 -1.058982,0.85458 z" />
      <path
         style="fill:#231f20;fill-opacity:1;stroke-width:0.049868"
         d="m 96.19822,149.85272 h 0.854014 v 0.48996 c 0.159417,-0.33044 0.478248,-0.6039 1.036205,-0.6153 v 0.90015 h -0.04555 c -0.626277,0 -0.956496,0.29626 -0.956496,0.94573 v 2.05098 h -0.899562 v -3.77152 z"
         id="path3711" />
      <path
         id="path2202"
         style="fill:#231f20;fill-opacity:1;stroke-width:0.049868"
         d="m 94.45603,148.54237 h 0.899562 v 0.79761 H 94.45603 Z m 0,1.31035 h 0.899562 v 3.76013 H 94.45603 Z" />
    </g>
  </g>
</svg>
