<?xml version="1.0" encoding="utf-8"?>
<!-- Generator: Adobe Illustrator 27.6.1, SVG Export Plug-In . SVG Version: 6.00 Build 0)  -->
<svg version="1.1" id="Layer_1" xmlns="http://www.w3.org/2000/svg" xmlns:xlink="http://www.w3.org/1999/xlink" x="0px" y="0px"
	 viewBox="0 0 600 107.985405" style="enable-background:new 0 0 600 107.985405;" xml:space="preserve">
<style type="text/css">
	.st0{fill:none;}
	.st1{fill:#CCCBCB;}
	.st2{fill:#FFFFFF;}
	.st3{fill:#E0203C;}
	.st4{fill:#1B2E5A;}
</style>
<g>
	<g>
		<g>
			<g>
				<path class="st0" d="M33.4627228,74.2913437l5.2500305-24.1198311L24.8071518,29.3846703l19.8043518,4.9700775
					l7.3158302-12.4849739l-4.0595856,2.8492355L28.7162971,13.661562c-1.364912-0.7881126-2.6092148-1.3772192-3.7732773-1.8245201
					c-1.3063469-0.6546421-2.7619781-1.0563736-4.3236485-1.0563736c-0.0333977,0-0.062645,0.0094137-0.0937176,0.0094137
					c-2.1343327,0.0210457-4.0911713,0.74716-5.6868382,1.9346066c-2.3837061,1.7718754-3.9471607,4.5860338-3.9471607,7.7866335
					c0,0.4145641-0.0942574,66.5976562-0.0942574,66.9758835c0,2.0329971,0.627121,3.9149628,1.6916494,5.4783554
					c1.7507687,2.5670624,4.6978579,4.2522354,8.0389452,4.2522354c0.4403458,0,0.8619232-0.0714111,1.2853012-0.1264496
					c0.3887787-0.0585861,0.771143-0.1299973,1.146492-0.2154999c3.1883087-0.7166977,5.7565117-2.1957932,5.7565117-2.1957932
					l28.5360184-16.4760818l8.3147621-0.3677368L51.5807037,65.2446518L33.4627228,74.2913437z"/>
				<path class="st0" d="M58.2699547,40.0228767l12.4885674,7.4704056l-8.3077431,9.4565201l2.5067406,16.8052025
					l16.0527115-9.2692032c1.1816254-0.6792259,2.1946487-1.3596497,3.0764847-2.0376778
					c0.662796-0.4392052,1.2495651-0.9696693,1.7870407-1.5552406c1.5868378-1.7297211,2.5822983-4.0191727,2.5822983-6.5569153
					c0-1.9604492-0.5943222-3.7791519-1.5903778-5.3074112c-0.4684067-0.7143631-1.0393448-1.342083-1.6746216-1.913559
					c-2.0523682-2.0306625-4.1784897-3.259182-4.1784897-3.259182L54.199276,28.3739853L58.2699547,40.0228767z"/>
				<path class="st1" d="M94.2522507,44.2781792l-0.0468445-0.0714378c-0.812149-1.2366714-1.8169479-2.4077644-2.9792557-3.4734573
					c-2.6671677-2.6027527-5.314415-4.1895828-5.818573-4.4811821L33.1066055,6.056663
					c-1.5768738-0.912281-3.097538-1.6559243-4.6316681-2.2666488C25.9635296,2.6025269,23.3203754,2,20.6192513,2
					c-0.1780052,0-0.3560123,0.00527-0.5258198,0.0158098c-3.7937527,0.1077404-7.4235525,1.374862-10.4964981,3.6631758
					C7.3431668,7.3530617,5.4705906,9.5494452,4.180047,12.0304031c-1.3549533,2.606266-2.0710762,5.5392647-2.0710762,8.4810486
					c0,0.2910175-0.0269351,19.8950958-0.0474291,34.615139l-0.0281062,19.752224
					c-0.0105398,7.3919296-0.018152,12.4973068-0.018152,12.6085587c0,3.7299347,1.1125374,7.3333817,3.21699,10.4209671
					C8.6852379,102.9750671,14.4030952,106,20.5279064,106c0.967907,0,1.7607365-0.1100845,2.2408848-0.1768341l0.3542557-0.0480118
					c0.5896454-0.089592,1.1839733-0.2014313,1.766592-0.3325958c4.2089043-0.9474106,7.5693531-2.7877808,8.2017422-3.1478958
					l52.3109245-30.2024612c1.3695908-0.7893143,2.6548691-1.6354294,3.8101501-2.5084763
					c1.1148758-0.7694092,2.1401672-1.6717377,3.1338425-2.7579269c3.1549225-3.4330559,4.8922348-7.8685646,4.8922348-12.4896965
					C97.238533,50.7748108,96.2079697,47.3007698,94.2522507,44.2781792z"/>
				<path class="st2" d="M20.5279064,104.8008041c-5.7278109,0-11.075017-2.8287735-14.3048897-7.5670166
					c-1.96802-2.8884964-3.0085354-6.2588959-3.0085354-9.7464142c0-0.1897125,0.0936873-66.6972046,0.0936873-66.9759216
					c0-2.750309,0.6692791-5.4918356,1.9352295-7.9271221c1.207396-2.321104,2.9605207-4.3757849,5.0702429-5.9438772
					c2.8820581-2.1466117,6.2864218-3.3317571,9.8447847-3.4266155c0.1329193-0.0093687,0.2968731-0.0146387,0.460825-0.0146387
					c2.5319023,0,5.0105171,0.567394,7.3679256,1.6869583c1.5054398,0.5984278,2.9845295,1.3209915,4.5204144,2.2092648
					L84.806221,37.2896881c0.2974548,0.1721497,2.9757462,1.7531242,5.6025009,4.3225021
					c1.0826797,0.9883995,2.0306778,2.0898132,2.7942276,3.2527046l0.0415726,0.0673409
					c1.8187103,2.7866135,2.7948151,6.0533752,2.7948151,9.4038658c0,4.3195763-1.6260605,8.4681702-4.5783844,11.681057
					c-0.9421463,1.0288086-1.9118118,1.8807755-2.9628677,2.6027527c-1.100235,0.8349915-2.3550644,1.6617813-3.695961,2.4341202
					l-52.3015594,30.1971893c-0.6095524,0.347229-3.8318119,2.1120682-7.8744221,3.0214157
					c-0.5591965,0.1264801-1.1248341,0.2324677-1.6811028,0.3167801l-0.3325901,0.0445023
					C22.1609936,104.6971588,21.4185219,104.8008041,20.5279064,104.8008041z"/>
				<path class="st3" d="M85.1910553,47.1149979c-2.0523682-2.0306625-4.1784897-3.259182-4.1784897-3.259182L54.199276,28.3739853
					l4.0706787,11.6488914l12.4885674,7.4704056l-8.3077431,9.4565201l2.5067406,16.8052025l16.0527115-9.2692032
					c1.1816254-0.6792259,2.1946487-1.3596497,3.0764847-2.0376778c0.662796-0.4392052,1.2495651-0.9696693,1.7870407-1.5552406
					c1.5868378-1.7297211,2.5822983-4.0191727,2.5822983-6.5569153c0-1.9604492-0.5943222-3.7791519-1.5903778-5.3074112
					C86.3972702,48.3141937,85.8263321,47.6864738,85.1910553,47.1149979z"/>
				<path class="st4" d="M33.4627228,74.2913437l5.2500305-24.1198311L24.8071518,29.3846703l19.8043518,4.9700775
					l7.3158302-12.4849739l-4.0595856,2.8492355L28.7162971,13.661562c-1.364912-0.7881126-2.6092148-1.3772192-3.7732773-1.8245201
					c-1.3063469-0.6546421-2.7619781-1.0563736-4.3236485-1.0563736c-0.0333977,0-0.062645,0.0094137-0.0937176,0.0094137
					c-2.1343327,0.0210457-4.0911713,0.74716-5.6868382,1.9346066c-2.3837061,1.7718754-3.9471607,4.5860338-3.9471607,7.7866335
					c0,0.4145641-0.0942574,66.5976562-0.0942574,66.9758835c0,2.0329971,0.627121,3.9149628,1.6916494,5.4783554
					c1.7507687,2.5670624,4.6978579,4.2522354,8.0389452,4.2522354c0.4403458,0,0.8619232-0.0714111,1.2853012-0.1264496
					c0.3887787-0.0585861,0.771143-0.1299973,1.146492-0.2154999c3.1883087-0.7166977,5.7565117-2.1957932,5.7565117-2.1957932
					l28.5360184-16.4760818l8.3147621-0.3677368L51.5807037,65.2446518L33.4627228,74.2913437z"/>
			</g>
		</g>
	</g>
	<g>
		<path class="st4" d="M161.1006622,58.0731506c1.8092957,2.3433533,2.7151642,5.1651268,2.7151642,8.4658585
			c0,4.8992615-2.0242462,8.6929855-6.0697937,11.3812332c-4.0473022,2.6894379-9.9033508,4.0332642-17.5710754,4.0332642
			h-31.4672089V26.0467014h29.869873c7.4539795,0,13.0846252,1.3315296,16.8923798,3.9928513
			c3.806076,2.6630573,5.7102966,6.2038708,5.7102966,10.6223774c0,2.6098137-0.6529083,4.9519691-1.9569244,7.0283203
			c-1.3052063,2.0769539-3.2345276,3.7539711-5.7904358,5.0315971
			C156.7336578,53.9474297,159.2895813,55.7309952,161.1006622,58.0731506z M127.2367477,39.224453v8.3065453h8.7855606
			c4.0993958,0,6.1493683-1.3842354,6.1493683-4.1533051c0-2.767868-2.0499725-4.1532402-6.1493683-4.1532402H127.2367477z
			 M144.8072205,64.382431c0-2.9271812-2.076355-4.3921814-6.229599-4.3921814h-11.3408737v8.7849655h11.3408737
			C142.7308655,68.7752151,144.8072205,67.3112946,144.8072205,64.382431z"/>
		<path class="st4" d="M192.3922424,67.8968582h-5.1112823v14.0566483h-18.8486938V26.0467014h26.9152222
			c5.1639252,0,9.6638641,0.8519707,13.4973907,2.5553722c3.8336029,1.70508,6.7888489,4.153244,8.8652039,7.3479652
			c2.0763397,3.1947861,3.115097,6.9223747,3.115097,11.1816254c0,3.9928513-0.9064178,7.4808998-2.7157745,10.4625244
			c-1.8104858,2.9821663-4.4203033,5.3507042-7.8269806,7.1079521l11.7407532,17.2513657h-20.1269836L192.3922424,67.8968582z
			 M199.8995209,42.2991371c-1.2776794-1.1441574-3.1947784-1.716835-5.7500916-1.716835h-6.8684692v13.0980644h6.8684692
			c2.5553131,0,4.4724121-0.571476,5.7500916-1.716774c1.2782288-1.1447525,1.917038-2.7555771,1.917038-4.8319283
			C201.8165588,45.0547142,201.1777496,43.4450302,199.8995209,42.2991371z"/>
		<path class="st4" d="M225.8959808,26.0467014h18.8487549v55.9068069h-18.8487549V26.0467014z"/>
		<path class="st4" d="M288.7666626,52.4823685h16.372467v23.6408157
			c-3.3019409,2.2901077-7.1354675,4.0467529-11.5007324,5.2710724c-4.366394,1.2243805-8.6531677,1.8368759-12.8585815,1.8368759
			c-5.9638062,0-11.315094-1.2378159-16.0533142-3.713501c-4.7394104-2.4756851-8.4535522-5.9362717-11.1412048-10.3828964
			c-2.6893921-4.4448929-4.0332642-9.4905739-4.0332642-15.1346626c0-5.643486,1.3438721-10.6885147,4.0332642-15.1351395
			c2.6876526-4.4448891,6.4416199-7.9066753,11.261261-10.3823605c4.8178101-2.476284,10.2628479-3.7140961,16.3325806-3.7140961
			c5.4836426,0,10.3952026,0.918705,14.73526,2.7555771c4.3394775,1.8368721,7.947052,4.5122242,10.822052,8.0266552
			l-12.059845,10.6223755c-3.5138855-4.0993996-7.6947327-6.1499672-12.5389404-6.1499672
			c-4.1532593,0-7.4551697,1.2519035-9.9033508,3.7539101c-2.4498901,2.5032082-3.6742859,5.9099503-3.6742859,10.2230453
			c0,4.2066078,1.2103577,7.5875092,3.6339417,10.1428795c2.4223938,2.5559082,5.6569214,3.8335342,9.7042236,3.8335342
			c2.3960571,0,4.6843567-0.4514389,6.8684692-1.3573074V52.4823685z"/>
		<path class="st4" d="M366.7168884,26.0467014v55.9068069h-18.8487244V61.3475609H330.45755v20.6059456h-18.8487549V26.0467014
			H330.45755v19.8066769h17.410614V26.0467014H366.7168884z"/>
		<path class="st4" d="M387.209259,40.6619301h-16.372467V26.0467014h51.5942383v14.6152287h-16.3730774v41.2915764H387.209259
			V40.6619301z"/>
		<path class="st4" d="M473.033905,67.7370071v14.2164993h-46.4824219V26.0467014h45.4442139v14.2158947h-26.9151611v6.5493622
			h23.6408081v13.5776215h-23.6408081v7.3474274H473.033905z"/>
		<path class="st4" d="M490.5721741,79.4778214c-4.7921143-2.5020676-8.5460205-5.9766846-11.261261-10.4227753
			c-2.7157593-4.4454269-4.072998-9.4641304-4.072998-15.0549736c0-5.5907822,1.3572388-10.6088867,4.072998-15.0549126
			c2.7152405-4.445488,6.4691467-7.9195671,11.261261-10.4227734c4.7921143-2.5020065,10.1955261-3.7539101,16.2131653-3.7539101
			c6.0158691,0,11.4210815,1.2519035,16.2125854,3.7539101c4.7921143,2.5032063,8.5460815,5.9772854,11.2618408,10.4227734
			c2.7151489,4.4460258,4.0730591,9.4641304,4.0730591,15.0549126c0,5.5908432-1.3579102,10.6095467-4.0730591,15.0549736
			c-2.7157593,4.4460907-6.4697266,7.9207077-11.2618408,10.4227753
			c-4.7915039,2.5020065-10.1967163,3.7533112-16.2125854,3.7533112
			C500.7677002,83.2311325,495.3642883,81.9798279,490.5721741,79.4778214z M513.1343994,66.2596588
			c1.8895874-1.1441574,3.3944092-2.7678719,4.5128784-4.8717461c1.1177368-2.1032715,1.6769409-4.5648689,1.6769409-7.3878403
			c0-2.8217125-0.5592041-5.2839661-1.6769409-7.3877792c-1.1184692-2.1027336-2.623291-3.7264481-4.5128784-4.8717422
			c-1.890686-1.1447563-4.0068665-1.7174339-6.3490601-1.7174339c-2.3439636,0-4.460083,0.5726776-6.3496399,1.7174339
			c-1.8907166,1.1452942-3.3944092,2.7690086-4.5122375,4.8717422c-1.1183777,2.1038132-1.6776123,4.5660667-1.6776123,7.3877792
			c0,2.8229713,0.5592346,5.2845688,1.6776123,7.3878403c1.1178284,2.1038742,2.621521,3.7275887,4.5122375,4.8717461
			c1.8895569,1.1453552,4.0056763,1.7168274,6.3496399,1.7168274
			C509.127533,67.9764862,511.2437134,67.405014,513.1343994,66.2596588z"/>
		<path class="st4" d="M597.9847412,26.0467014v55.9068069h-15.4941406l-21.244751-25.397522v25.397522h-18.3692017V26.0467014
			h15.4941406l21.244812,25.3975201V26.0467014H597.9847412z"/>
	</g>
</g>
</svg>
