<?xml version="1.0" standalone="no"?>
<!DOCTYPE svg PUBLIC "-//W3C//DTD SVG 20010904//EN"
 "http://www.w3.org/TR/2001/REC-SVG-20010904/DTD/svg10.dtd">
<svg version="1.0" xmlns="http://www.w3.org/2000/svg"
 width="1250.000000pt" height="381.000000pt" viewBox="0 0 1250.000000 381.000000"
 preserveAspectRatio="xMidYMid meet">

<g transform="translate(0.000000,381.000000) scale(0.100000,-0.100000)"
fill="#000000" stroke="none">
<path d="M420 3799 c-64 -11 -162 -55 -205 -92 -98 -82 -131 -288 -66 -414 28
-56 124 -141 220 -196 44 -26 117 -68 160 -93 101 -58 158 -112 167 -158 21
-114 -63 -190 -170 -154 -60 20 -78 53 -84 148 l-5 80 -164 0 -165 0 4 -107
c3 -92 8 -116 30 -159 68 -130 204 -193 419 -194 294 0 437 107 455 341 17
217 -48 305 -342 464 -81 44 -167 98 -191 121 -40 37 -43 44 -43 91 0 87 67
136 151 113 56 -16 73 -42 79 -119 l5 -66 159 -3 159 -3 -5 91 c-13 215 -130
307 -398 315 -63 2 -140 0 -170 -6z"/>
<path d="M4498 3785 c-114 -29 -191 -84 -236 -169 -25 -47 -27 -61 -27 -166 0
-138 12 -168 103 -251 55 -51 96 -77 298 -193 144 -82 188 -146 164 -234 -14
-53 -56 -82 -118 -82 -93 0 -132 49 -132 165 l0 65 -166 0 -167 0 5 -102 c3
-57 11 -116 19 -133 68 -152 203 -220 434 -219 229 1 372 76 422 218 24 70 25
264 1 318 -39 87 -154 178 -358 284 -52 27 -116 70 -142 95 -44 42 -48 49 -48
93 0 58 12 81 50 101 48 25 105 19 142 -14 29 -25 32 -35 36 -95 l4 -66 155 0
155 0 -4 89 c-3 74 -9 99 -34 147 -33 66 -94 114 -177 140 -72 23 -302 28
-379 9z"/>
<path d="M8355 3793 c-136 -30 -232 -98 -276 -195 l-24 -53 0 -405 0 -405 28
-57 c65 -131 198 -193 417 -193 174 1 307 50 375 139 54 71 65 135 65 372 l0
214 -220 0 -220 0 0 -90 0 -90 65 0 65 0 0 -97 c0 -115 -11 -161 -45 -193 -33
-31 -118 -39 -163 -16 -61 31 -62 40 -62 413 0 302 2 342 18 373 23 47 79 74
135 66 76 -12 107 -53 107 -143 l0 -63 161 0 162 0 -5 89 c-14 234 -157 343
-448 340 -63 -1 -124 -3 -135 -6z"/>
<path d="M1455 3748 c-11 -44 -225 -1211 -225 -1224 0 -11 33 -14 168 -14
l168 0 84 558 c46 306 86 566 88 577 5 17 170 -1064 172 -1117 0 -16 15 -18
170 -18 94 0 170 2 170 5 0 6 -217 1185 -226 1228 l-6 27 -279 0 -279 0 -5
-22z"/>
<path d="M2527 3488 c-4 -156 -10 -439 -14 -630 l-6 -348 156 0 157 0 0 223
c0 123 3 381 7 573 l6 349 106 -570 106 -570 163 -3 c89 -1 162 1 162 5 0 22
202 1101 210 1118 5 12 9 -214 9 -552 l1 -573 161 0 161 0 -6 168 c-3 92 -8
289 -11 437 -3 149 -8 357 -11 463 l-6 192 -256 -2 -256 -3 -77 -478 c-43
-263 -79 -481 -81 -483 -3 -2 -18 83 -35 189 -17 105 -53 324 -79 485 l-47
292 -257 0 -257 0 -6 -282z"/>
<path d="M5420 3255 c0 -500 1 -516 21 -571 57 -153 212 -223 463 -211 218 10
334 83 380 237 14 46 16 124 16 557 l0 503 -160 0 -160 0 0 -500 0 -500 -27
-30 c-31 -35 -82 -50 -131 -39 -43 9 -70 34 -82 78 -6 22 -10 226 -10 514 l0
477 -155 0 -155 0 0 -515z"/>
<path d="M6650 3145 l0 -625 156 0 156 0 -6 458 c-4 251 -9 484 -12 517 -3 36
-2 56 4 50 5 -5 78 -238 162 -517 l154 -508 223 0 223 0 0 625 0 625 -156 0
-155 0 5 -227 c13 -521 17 -777 13 -773 -3 3 -64 208 -137 455 -72 248 -138
471 -146 498 l-16 47 -234 0 -234 0 0 -625z"/>
<path d="M9985 1697 l-120 -82 -3 -83 -3 -82 -89 0 -90 0 0 -105 0 -105 89 0
89 0 4 -282 c5 -253 7 -290 26 -348 47 -145 158 -210 357 -210 l75 0 0 115 0
115 -55 0 c-31 0 -71 7 -91 15 -59 25 -64 49 -64 340 l0 255 105 0 105 0 0
105 0 105 -105 0 -105 0 -2 165 -3 165 -120 -83z"/>
<path d="M505 1711 c-134 -33 -252 -104 -340 -203 -64 -73 -131 -213 -151
-318 -29 -147 -6 -318 61 -450 161 -319 570 -451 905 -293 58 28 93 54 155
117 128 129 180 256 192 464 l6 112 -342 0 -341 0 0 -120 0 -120 205 0 c134 0
205 -4 205 -10 0 -21 -30 -82 -61 -125 -72 -100 -191 -150 -343 -143 -76 3
-102 9 -157 35 -164 76 -251 215 -251 398 0 136 42 236 139 326 82 77 169 110
287 110 169 0 280 -65 383 -220 3 -5 213 120 213 128 0 3 -23 36 -50 73 -87
116 -240 212 -385 243 -93 20 -243 18 -330 -4z"/>
<path d="M2710 1065 l0 -665 120 0 120 0 0 665 0 665 -120 0 -120 0 0 -665z"/>
<path d="M11520 1065 l0 -665 119 0 120 0 3 333 c3 325 4 333 27 385 43 94
118 142 223 142 103 -1 175 -46 215 -135 16 -35 18 -79 21 -382 l3 -343 120 0
119 0 0 363 c0 270 -4 375 -14 412 -32 122 -106 213 -214 263 -52 25 -68 27
-177 27 -109 0 -125 -2 -177 -27 -31 -14 -77 -45 -102 -68 l-46 -43 0 202 0
201 -120 0 -120 0 0 -665z"/>
<path d="M6804 1628 c13 -46 97 -341 187 -655 l163 -573 126 0 125 0 135 455
c74 250 137 455 140 455 3 0 66 -205 140 -455 l135 -455 122 0 122 0 20 68
c11 37 93 326 182 642 89 316 164 581 166 588 4 9 -24 12 -119 12 l-125 0
-117 -437 c-64 -241 -120 -446 -124 -456 -4 -11 -55 145 -142 438 l-135 455
-122 0 -122 0 -19 -62 c-11 -35 -73 -240 -138 -457 -78 -261 -120 -387 -125
-374 -4 10 -60 215 -125 456 l-117 437 -128 0 -128 0 23 -82z"/>
<path d="M1851 1465 c-105 -23 -185 -67 -260 -142 -108 -110 -151 -224 -151
-400 0 -174 52 -297 171 -407 104 -97 232 -143 373 -133 104 6 176 34 254 97
l62 50 0 -65 0 -65 120 0 120 0 0 530 0 530 -120 0 -120 0 0 -60 c0 -33 -3
-60 -6 -60 -3 0 -26 18 -51 40 -49 43 -128 77 -213 91 -71 12 -101 10 -179 -6z
m271 -237 c60 -26 139 -109 164 -173 13 -34 19 -75 19 -130 0 -71 -4 -89 -33
-147 -57 -116 -147 -171 -277 -172 -68 -1 -88 3 -137 27 -192 94 -243 355
-100 518 86 98 238 130 364 77z"/>
<path d="M3510 1469 c-84 -14 -208 -79 -274 -145 -94 -94 -156 -251 -156 -394
0 -83 26 -187 66 -269 141 -286 528 -374 750 -169 l44 41 0 -67 0 -66 125 0
125 0 -2 528 -3 527 -120 0 -120 0 -3 -58 -3 -58 -35 30 c-50 44 -126 80 -203
97 -73 15 -110 16 -191 3z m242 -235 c114 -37 202 -166 202 -299 1 -96 -24
-162 -85 -229 -66 -72 -130 -100 -229 -101 -60 0 -86 5 -130 26 -70 33 -126
89 -159 159 -22 46 -26 69 -26 140 0 101 20 154 85 224 88 95 206 123 342 80z"/>
<path d="M8857 1456 c-180 -52 -316 -194 -364 -379 -20 -81 -20 -224 1 -306
47 -182 185 -323 370 -376 43 -13 84 -16 155 -13 82 3 106 8 163 35 37 17 87
50 112 73 l46 43 0 -67 0 -66 120 0 120 0 0 525 0 525 -120 0 -120 0 0 -60 0
-60 -54 44 c-81 66 -150 89 -276 92 -68 2 -122 -2 -153 -10z m319 -239 c136
-69 203 -231 159 -382 -53 -182 -226 -275 -406 -218 -76 24 -168 116 -194 193
-28 82 -25 182 8 253 32 71 102 140 170 166 74 30 192 25 263 -12z"/>
<path d="M10773 1455 c-174 -47 -315 -180 -375 -353 -18 -54 -23 -88 -23 -177
0 -89 5 -123 23 -177 59 -172 193 -299 371 -352 34 -10 92 -16 152 -16 165 0
297 55 399 167 55 60 107 151 93 163 -20 17 -208 90 -211 82 -11 -35 -68 -105
-105 -131 -210 -144 -487 6 -487 264 0 92 31 167 94 231 135 135 370 111 469
-47 16 -27 32 -49 34 -49 6 0 175 70 196 82 16 8 16 13 -10 61 -60 113 -197
217 -328 252 -73 19 -222 19 -292 0z"/>
<path d="M4276 1448 c5 -7 91 -125 191 -261 104 -140 181 -253 177 -259 -4 -6
-89 -122 -189 -257 -100 -135 -185 -252 -189 -258 -6 -10 25 -13 141 -13 l148
1 124 175 c68 96 127 172 131 167 3 -4 62 -83 129 -175 l123 -168 144 0 c79 0
144 2 144 5 0 3 -88 123 -196 267 -179 238 -196 263 -184 282 7 11 91 127 186
258 96 132 174 241 174 244 0 2 -64 3 -142 2 l-143 -3 -115 -162 c-63 -89
-118 -162 -122 -163 -3 0 -53 64 -109 143 -150 208 -117 187 -286 187 -113 0
-143 -3 -137 -12z"/>
<path d="M5370 1448 c0 -7 95 -231 210 -497 116 -267 210 -490 210 -496 0 -7
-38 -102 -84 -213 -46 -111 -87 -210 -91 -222 -6 -19 -3 -20 117 -20 l123 0
293 718 c161 394 292 723 292 730 0 10 -28 12 -122 10 l-123 -3 -81 -205 c-45
-113 -107 -272 -139 -353 -32 -81 -60 -146 -62 -144 -2 3 -69 161 -148 353
l-144 349 -125 3 c-98 2 -126 0 -126 -10z"/>
</g>
</svg>
